<svg width="345" height="307" viewBox="0 0 345 307" fill="none" xmlns="http://www.w3.org/2000/svg">
<g clip-path="url(#clip0_204_1465)">
<mask id="mask0_204_1465" style="mask-type:alpha" maskUnits="userSpaceOnUse" x="11" y="-12" width="346" height="206">
<path d="M356.474 193.435V-11.4458L11.4622 -11.4458V193.435L356.474 193.435Z" fill="#E6E6E6"/>
</mask>
<g mask="url(#mask0_204_1465)">
<path d="M294.005 163.641C291.071 160.631 287.873 158.078 284.583 156.201C268.8 147.205 249.085 144.011 231.376 141.127C220.12 139.296 208.99 137.247 197.551 136.595C187.372 136.011 177.286 136.766 167.119 137.442C157.88 138.048 148.011 137.499 138.83 138.907C116.272 140.211 92.7405 145.454 71.9711 154.13C63.3057 157.746 54.7778 162.634 48.9092 170.131C43.0061 177.662 37.3094 190.768 37.8596 200.451C37.9055 201.206 38.3296 201.653 38.8568 201.801C40.7252 208.944 56.4857 209.47 61.5978 209.138C77.5073 208.097 93.05 210.981 108.994 211.473C128.055 212.068 147.22 210.992 166.293 210.878C185.412 210.752 204.302 208.474 223.386 207.891C241.027 207.353 258.919 207.238 276.548 208.016C286.658 208.463 305.203 211.897 307.427 198.803C309.479 186.693 303.071 172.935 294.016 163.618L294.005 163.641Z" fill="#8C2526"/>
<path d="M218.916 147.434C217.942 145.522 215.626 145.167 213.288 143.943C212.566 143.565 206.503 141.196 206.503 141.036C206.526 136.904 206.331 132.783 205.482 128.811C205.368 128.285 204.543 128.285 204.428 128.811C204.428 128.823 204.428 128.834 204.428 128.846C203.878 127.209 203.098 125.71 202.25 124.874C200.382 123.008 195.98 121.601 193.699 120.616C190.352 119.174 186.822 118.384 183.223 117.846C175.119 116.633 166.809 116.908 158.648 117.114C151.541 117.297 142.979 116.633 136.205 119.472C136.113 118.533 136.045 117.594 135.987 116.644C135.93 115.603 134.222 115.214 134.039 116.381C132.824 123.867 135.632 132.589 137.076 139.983C134.417 142.558 130.187 143.142 128.101 146.312C126.141 149.288 126.795 153.809 127.104 157.128C127.975 166.571 132.205 175.43 139.804 181.256C149.146 188.41 161.41 190.642 172.93 190.791C184.667 190.939 196.84 189.28 205.918 181.176C211.741 175.98 215.718 168.78 217.804 161.318C218.87 157.518 219.478 153.546 219.409 149.608C219.398 148.704 219.226 148.006 218.939 147.445L218.916 147.434Z" fill="#F77D68"/>
<path d="M228.487 29.7935C228.705 27.3899 228.418 24.9863 227.593 22.7429C225.885 18.0386 222.848 16.5163 219.421 15.3603C220.143 9.7862 215.512 6.40968 210.904 4.49822C207.076 2.90725 203.202 2.12894 199.11 2.10605C193.998 2.07171 189.103 3.93738 184.14 2.03737C177.435 -0.515049 171.876 -1.13312 165.17 2.80424C163.772 3.62834 161.903 4.88738 160.471 6.43257C155.439 3.7428 148.802 5.83739 144.149 8.6645C141.432 10.3127 138.899 12.579 136.893 15.1428C134.085 18.7368 133.959 21.5983 129.534 24.1049C124.617 26.8977 121.327 30.4688 120.41 36.9586C119.998 39.8315 120.021 44.1809 121.304 47.3972C116.02 50.8309 116.834 60.7545 120.284 65.6189C120.72 66.237 121.923 66.1569 121.843 65.1611C121.648 62.8605 121.19 60.6057 120.926 58.3165C121.373 58.3394 121.786 58.099 122.084 57.7099C122.829 56.737 123.792 55.9243 124.766 55.1803C126.588 55.2605 128.698 54.4822 130.566 54.5394C131.105 54.5508 131.609 54.5737 132.102 54.5852C131.666 54.94 131.574 55.6725 131.838 56.1418C132.205 56.7828 132.927 56.8514 133.546 56.5882C134.795 56.0617 136.079 55.6611 137.42 55.455C137.993 55.3635 138.257 54.9514 138.303 54.4821C138.417 54.3334 138.509 54.1617 138.566 53.99C141.845 53.2689 145.077 52.09 148.218 50.9225C166.144 44.2725 186.043 49.3773 204.348 51.2888C209.896 51.8725 218.423 57.7785 223.96 54.6882C228.716 52.0442 229.118 44.9134 227.799 40.2435C227.249 38.2977 226.642 37.7598 226.825 35.608C226.986 33.7309 228.35 31.8194 228.533 29.7592L228.487 29.7935Z" fill="#060606"/>
<path d="M135.082 78.8961C135.357 72.887 137.466 61.4527 132.445 56.3936C132.537 56.3593 132.629 56.3478 132.72 56.3135C133.924 55.8671 133.729 54.1846 132.422 54.0815C127.448 53.7267 122.187 52.6623 118.312 55.9701C118.462 64.0165 120.089 71.9256 121.453 79.8347C122.106 83.6003 122.645 87.3775 123.058 91.1775C123.47 95.0004 123.287 99.613 124.433 103.287C125.545 106.87 127.368 110.75 130.921 111.494C135.643 112.478 136.812 105.965 137.145 102.692C137.959 94.7486 134.726 86.9425 135.093 78.8961H135.082Z" fill="#060606"/>
<path d="M220.853 54.1158C220.83 54.1845 220.807 54.2646 220.784 54.3333C220.062 53.9098 219.099 53.6466 217.793 53.555C214.858 53.3604 214.102 54.6767 213.288 57.5725C211.729 63.1237 213.345 69.705 213.494 75.3707C213.701 82.8906 214.033 90.3991 214.194 97.9076C214.239 99.9564 217.3 100.471 217.827 98.3997C219.638 91.2804 221.357 84.1268 222.377 76.8358C223.398 69.5219 223.168 62.2195 223.524 54.8713C223.868 53.5664 221.529 52.0899 220.83 54.1273L220.853 54.1158Z" fill="#060606"/>
<path d="M212.6 56.6339C213.139 56.737 213.666 56.8514 214.182 56.9888C212.749 55.6153 211.248 54.3448 209.632 53.1544C206.858 52.8225 203.969 52.7538 201.356 52.3189C196.794 51.552 191.028 50.9912 186.398 50.7508C176.059 50.2014 165.193 49.4574 154.9 50.705C147.3 51.6321 139.976 53.6123 134.933 59.5641C134.061 60.5942 132.995 61.8761 131.987 63.284C132.193 62.5514 132.468 61.9219 132.846 61.4641C133.374 60.846 132.709 59.6328 131.895 60.205C129.603 61.796 129.201 65.1268 128.8 67.6448C127.792 73.9973 127.505 80.613 127.757 87.0341C128.33 101.605 131.494 119.266 136.904 132.875C140.606 142.18 147.002 150.41 155.461 156.762C170.316 167.922 188.048 166.148 199.877 150.719C215.237 130.711 216.818 104.203 215.443 80.0636C215.294 77.4539 214.916 57.0803 212.577 56.6568L212.6 56.6339Z" fill="#F77D68"/>
<path d="M151.942 92.2648C151.495 91.0401 150.533 90.2389 149.042 90.7883C146.716 91.6467 146.647 97.0835 149.398 97.4269C151.885 97.7359 152.699 94.3708 151.931 92.2534L151.942 92.2648Z" fill="#2E1A15"/>
<path d="M198.353 93.5124C197.906 92.2877 196.943 91.4865 195.453 92.0359C193.126 92.8943 193.058 98.3311 195.808 98.6744C198.296 98.9835 199.11 95.6184 198.342 93.5009L198.353 93.5124Z" fill="#2E1A15"/>
<path d="M209.425 81.128C209.196 79.9491 208.245 78.587 207.603 77.9575C205.792 76.1834 203.213 75.2792 200.771 74.787C197.298 74.0888 193.424 74.1804 190.112 75.4966C188.782 76.0232 186.489 77.0876 185.871 78.5069C185.252 79.9491 186.409 81.2196 187.968 81.2425C190.753 81.2997 193.424 80.3955 196.186 80.2009C199.293 79.9834 202.525 80.7388 205.265 82.2039C205.906 82.5473 206.525 82.925 207.236 83.0738C208.6 83.3599 209.7 82.5358 209.425 81.1165V81.128Z" fill="#060606"/>
<path d="M135.598 83.1997C135.758 82.0093 136.629 80.6015 137.237 79.9376C138.945 78.0605 141.455 77.0075 143.873 76.378C147.301 75.4852 151.163 75.3478 154.556 76.4695C155.909 76.9159 158.27 77.8545 158.958 79.228C159.668 80.6358 158.579 81.9635 157.032 82.0894C154.247 82.3069 151.542 81.5629 148.768 81.5286C145.65 81.4942 142.475 82.4328 139.827 84.0467C139.208 84.4244 138.601 84.8479 137.913 85.031C136.572 85.3858 135.426 84.6304 135.609 83.1997H135.598Z" fill="#060606"/>
<path d="M182.397 107.911C180.988 101.605 180.712 95.1835 179.452 88.9226C179.314 88.2359 178.122 88.1901 178.019 88.9226C177.423 93.0317 177.835 96.8775 178.592 100.929C179.005 103.115 179.532 105.279 179.933 107.465C180.827 112.318 180.598 115.111 178.523 119.449C177.927 120.696 179.738 121.795 180.403 120.547C182.902 115.832 183.567 113.176 182.386 107.923L182.397 107.911Z" fill="#DB553D"/>
<path d="M174.454 114.149C173.652 113.897 172.002 113.497 171.268 114.046C170.695 114.47 170.626 115.259 171.268 115.672C171.933 116.106 172.999 115.866 173.767 116.061C174.317 116.198 175.291 116.885 175.784 116.393C176.69 115.465 175.268 114.401 174.466 114.149H174.454Z" fill="#DB553D"/>
<path d="M187.04 129.029C186.914 128.605 186.742 128.273 186.467 128.17C184.06 127.22 181.401 127.552 178.867 127.632C175.119 127.747 171.222 127.266 167.508 127.804C165.548 128.09 164.884 129.395 164.872 131.009C164.861 133.344 166.248 136.343 167.165 137.762C169.617 141.596 174.363 143.439 178.982 142.043C183.968 140.532 187.132 135.919 187.212 131.169C187.212 131.009 187.223 130.86 187.223 130.688C187.223 130.128 187.178 129.567 187.029 129.029H187.04Z" fill="#C93D24"/>
<path d="M187.246 130.7C183.384 131.49 179.292 131.501 175.337 131.455C172.483 131.421 168.265 131.879 164.884 131.02C164.895 129.407 165.56 128.102 167.52 127.816C171.234 127.278 175.131 127.758 178.879 127.644C181.412 127.564 184.071 127.232 186.479 128.182C186.754 128.296 186.926 128.617 187.052 129.04C187.201 129.578 187.246 130.139 187.246 130.7Z" fill="white"/>
<path d="M219.489 83.7606C215.729 82.3413 211.294 83.3256 209.93 87.263C209.551 88.3389 210.342 89.1172 211.271 89.3004C210.686 93.6956 210.824 98.2853 210.377 102.658C210.17 104.661 209.975 107.305 211.511 108.735C208.107 111.162 204.279 113.028 200.634 114.996C199.167 115.786 199.499 118.11 201.104 118.522C206.755 119.941 213.208 114.229 217.288 110.796C221.759 107.03 225.071 101.582 225.747 95.7329C226.309 90.9028 224.418 85.6377 219.489 83.772V83.7606Z" fill="#F77D68"/>
<path d="M124.284 83.7606C128.01 82.3413 132.4 83.3256 133.752 87.263C134.119 88.3389 133.339 89.1172 132.422 89.3004C133.007 93.6956 132.87 98.2853 133.317 102.658C133.523 104.661 133.718 107.305 132.193 108.735C135.563 111.162 139.346 113.028 142.968 114.996C144.423 115.786 144.091 118.11 142.509 118.522C136.916 119.941 130.531 114.229 126.485 110.796C122.061 107.03 118.783 101.582 118.106 95.7329C117.545 90.9028 119.413 85.6377 124.296 83.772L124.284 83.7606Z" fill="#F77D68"/>
<path d="M220.28 96.8432C219.913 96.2823 219.409 96.0305 218.985 95.6299C218.71 95.4811 218.435 95.4239 218.137 95.4697C218.206 94.8401 218.263 94.2106 218.297 93.5811C218.458 91.4636 217.942 88.9112 218.504 86.8624C218.802 86.2443 217.999 85.363 217.335 85.8323C215.145 87.3431 215.982 91.91 215.833 94.1648C215.73 95.7672 215.65 96.1106 216.544 97.2895C216.83 97.6673 217.552 97.5185 217.793 97.816C219.684 100.197 217.667 102.429 215.672 103.31C214.24 103.951 215.478 106.034 216.91 105.405C220.085 104.008 222.378 100.059 220.28 96.866V96.8432Z" fill="#DB553D"/>
<path d="M129.11 104.214C127.23 103.47 125.144 98.6859 128.686 98.2052C129.282 98.1251 129.603 97.3582 129.465 96.8432C128.48 93.295 127.952 89.6437 127.448 86.004C127.379 85.4889 126.737 85.3859 126.359 85.569C124.319 86.5305 126.176 93.4666 127.012 96.351C122.771 97.9649 124.835 104.901 128.525 106.355C129.855 106.881 130.428 104.741 129.11 104.214Z" fill="#DB553D"/>
<path d="M217.621 69.0069C217.506 63.8448 217.621 57.252 215.363 52.4791C214.824 51.3345 213.529 51.4719 212.738 52.1701C212.715 51.884 212.704 51.5978 212.669 51.3117C212.555 50.0412 210.789 50.0297 210.686 51.3117C210.663 51.6321 210.652 51.9526 210.629 52.2731C207.133 50.6707 202.113 49.9954 200.198 49.6177C191.212 47.8779 182.031 47.3743 172.895 47.2713C167.543 47.214 162.465 47.752 157.158 48.3472C153.341 48.7707 149.409 48.5189 145.673 49.4803C141.925 50.4418 137.282 52.1815 134.107 55.0316C134.073 54.2532 134.039 53.4749 133.97 52.708C133.809 50.6936 131.013 50.705 130.841 52.708C130.806 53.143 130.772 53.5779 130.749 54.0129C130.52 54.093 130.302 54.2075 130.142 54.4135C127.723 57.4352 127.012 62.3454 125.843 65.9967C124.846 69.1099 124.284 72.6238 124.41 76.0232C123.998 75.4624 122.978 75.7371 123.012 76.481C123.127 79.3539 127.975 87.4919 131.494 84.2756C133.592 82.3642 133.145 75.2105 133.34 72.6352C133.603 69.1328 133.913 65.5732 134.073 62.0135C137.489 58.0075 141.661 56.2334 147.53 56.2105C151.404 56.199 155.106 56.1876 158.946 55.5008C164.138 54.5737 169.067 52.4562 174.42 53.7382C178.432 54.6996 181.744 56.6225 185.997 56.6798C190.307 56.7484 194.513 55.2376 198.811 55.5237C202.342 55.7526 204.692 58.1448 208.107 58.74C208.864 58.8773 209.632 58.8888 210.388 58.9689C211.053 63.7304 210.938 68.6521 211.523 73.4479C211.901 76.584 211.626 80.6931 213.804 83.2112C214.389 83.8865 215.592 83.6805 216.005 82.925C218.16 78.9877 217.678 73.3105 217.586 68.9955L217.621 69.0069Z" fill="#060606"/>
<g opacity="0.51">
<path d="M139.632 102.933C139.632 102.933 139.69 102.898 139.724 102.875C139.839 102.761 139.874 102.715 139.632 102.933Z" fill="#DB553D"/>
<path d="M142.016 103.791C141.948 103.619 141.89 103.436 141.799 103.287C141.753 103.218 141.569 103.024 141.432 102.898C140.916 102.474 140.24 102.474 139.712 102.875C139.575 103.012 139.346 103.241 139.323 103.287C139.231 103.447 139.162 103.619 139.105 103.791C138.75 104.729 139.655 105.702 140.561 105.702C141.466 105.702 142.372 104.729 142.016 103.791Z" fill="#DB553D"/>
<path d="M141.444 102.898C141.444 102.898 141.49 102.921 141.501 102.933C141.225 102.68 141.294 102.749 141.444 102.898Z" fill="#DB553D"/>
<path d="M145.536 110.521C145.536 110.521 145.501 110.441 145.478 110.395C145.077 109.525 143.576 109.525 143.174 110.395C143.151 110.441 143.14 110.475 143.117 110.521C142.693 111.459 143.186 112.615 144.321 112.615C145.455 112.615 145.948 111.448 145.524 110.521H145.536Z" fill="#DB553D"/>
<path d="M137.592 109.937C137.592 109.937 137.489 109.949 137.432 109.96C136.205 110.109 136.205 111.711 137.432 111.86C137.489 111.86 137.535 111.872 137.592 111.883C138.841 112.043 138.841 109.788 137.592 109.937Z" fill="#DB553D"/>
<path d="M151.22 103.985C149.352 103.985 149.341 106.893 151.22 106.893C153.1 106.893 153.1 103.985 151.22 103.985Z" fill="#DB553D"/>
<path d="M153.249 110.658C151.725 110.658 151.713 113.028 153.249 113.028C154.785 113.028 154.785 110.658 153.249 110.658Z" fill="#DB553D"/>
<path d="M157.64 104.443C156.356 104.443 156.356 106.435 157.64 106.435C158.923 106.435 158.923 104.443 157.64 104.443Z" fill="#DB553D"/>
<path d="M146.2 115.752C144.779 115.752 144.779 117.949 146.2 117.949C147.622 117.949 147.622 115.752 146.2 115.752Z" fill="#DB553D"/>
<path d="M207.454 100.975C205.735 100.975 205.735 103.642 207.454 103.642C209.173 103.642 209.173 100.975 207.454 100.975Z" fill="#DB553D"/>
<path d="M198.055 103.127C196.496 103.127 196.484 105.553 198.055 105.553C199.625 105.553 199.625 103.127 198.055 103.127Z" fill="#DB553D"/>
<path d="M203.19 107.316C201.987 107.316 201.987 109.182 203.19 109.182C204.394 109.182 204.394 107.316 203.19 107.316Z" fill="#DB553D"/>
<path d="M194.295 106.744C192.553 106.744 192.553 109.445 194.295 109.445C196.038 109.445 196.038 106.744 194.295 106.744Z" fill="#DB553D"/>
<path d="M208.864 106.927C207.156 106.927 207.156 109.571 208.864 109.571C210.572 109.571 210.572 106.927 208.864 106.927Z" fill="#DB553D"/>
<path d="M196.026 112.478C194.41 112.478 194.41 114.985 196.026 114.985C197.642 114.985 197.642 112.478 196.026 112.478Z" fill="#DB553D"/>
<path d="M190.536 102.772C189.126 102.772 189.126 104.958 190.536 104.958C191.946 104.958 191.946 102.772 190.536 102.772Z" fill="#DB553D"/>
<path d="M204.634 112.856C202.915 112.856 202.915 115.523 204.634 115.523C206.354 115.523 206.354 112.856 204.634 112.856Z" fill="#DB553D"/>
</g>
<path d="M202.594 145.9C198.8 151.405 194.158 156.842 188.77 160.848C182.902 165.198 174.11 165.129 167.164 163.252C160.998 161.592 156.172 156.178 151.495 152.012C146.635 147.686 142.647 141.951 139.701 136.16C139.265 135.313 138.039 135.919 138.222 136.778C139.758 144.023 146.796 150.833 152.126 155.526C156.825 159.658 161.765 165.095 168.287 165.896C176.265 166.88 183.211 167.567 189.802 162.588C195.178 158.536 201.402 152.825 203.935 146.449C204.256 145.637 203.041 145.248 202.594 145.889V145.9Z" fill="#DB553D"/>
<path d="M141.627 53.2231C141.145 52.1128 139.082 53.2574 138.268 53.2803C137.099 53.3146 135.873 52.8683 134.703 52.811C134.623 52.5821 134.463 52.3761 134.233 52.3417C133.145 52.1815 132.365 52.7195 131.276 52.8225C129.981 52.9484 128.697 52.6393 127.574 51.9984C126.061 51.1285 124.238 49.755 123.539 48.1068C123.264 47.4544 122.095 47.6146 121.98 48.3128C121.579 50.7737 124.663 52.9827 126.531 54.0701C128.17 55.0201 132.09 55.8785 133.901 54.4478C134.807 55.146 136.148 55.3634 137.214 55.4779C138.646 55.6381 140.423 55.6381 141.455 54.4707C141.787 54.093 141.81 53.6695 141.615 53.2231H141.627Z" fill="#484240"/>
<path d="M214.079 47.0309C208.715 50.1556 204.176 50.7508 198.135 49.6863C194.043 48.9652 190.307 46.7791 186.306 46.0695C180.323 45.0164 171.876 51.8954 165.95 47.3743C165.824 47.1683 165.617 47.008 165.388 46.9279C165.033 46.6875 164.494 46.8134 164.288 47.1454C160.608 48.4616 157.674 50.7508 153.513 50.9225C150.258 51.0598 146.682 49.2285 143.587 50.1213C143.071 50.2701 142.968 50.9912 143.438 51.2659C150.212 55.2833 159.164 53.6466 165.147 48.9881C166.477 50.2128 168.689 50.5906 170.397 50.8881C175.807 51.8496 179.991 48.8279 185.057 48.9424C188.198 49.011 191.419 51.0255 194.502 51.8038C197.195 52.4791 199.935 52.8912 202.709 53.0629C207.477 53.3604 212.073 52.3532 215.501 48.8393C216.406 47.9122 215.248 46.3556 214.102 47.0309H214.079Z" fill="#484240"/>
<path d="M218.985 27.1152C217.735 30.8809 216.303 35.1158 213.185 37.7827C211.397 39.3164 208.52 40.3008 207.397 42.4526C207.007 43.1966 207.844 44.261 208.646 43.7002C211.362 41.7887 214.526 41.0791 216.773 38.4122C219.191 35.5393 221.048 31.5447 221.621 27.8363C221.885 26.1194 219.546 25.3983 218.973 27.1037L218.985 27.1152Z" fill="#484240"/>
<path d="M201.505 11.835C200.817 15.0742 200.978 17.9929 199.258 21.026C197.447 24.2194 194.662 26.8176 191.453 28.5574C185.733 31.6706 180.162 32.5634 173.766 32.1514C162.763 31.4417 156.688 46.4587 144.32 39.7743C143.587 39.3737 142.876 40.3008 143.438 40.9189C147.071 44.9135 153.329 44.1809 157.995 42.3496C160.459 41.3882 162.568 39.8888 164.677 38.3321C166.935 36.6725 168.826 34.5779 171.784 34.349C173.938 34.1773 176.46 35.0929 178.695 34.9899C184.38 34.7496 191.292 32.2429 195.82 28.7405C201.723 24.1851 202.984 19.0573 203.843 12.1326C204.004 10.8049 201.78 10.5073 201.493 11.8121L201.505 11.835Z" fill="#484240"/>
<path d="M185.722 11.8007C183.441 8.6302 177.801 8.14948 174.294 8.68743C172.001 9.04225 169.732 9.92358 167.875 11.3314C167.107 11.9152 166.373 13.1628 165.571 13.5977C163.84 14.5248 160.814 14.0784 158.923 14.1814C154.063 14.4332 149.306 15.9441 145.764 19.4236C143.77 21.3809 140.836 24.5628 141.569 27.5502C141.741 28.2712 142.773 28.0767 142.819 27.3785C142.979 24.5971 147.977 20.5339 150.086 19.2748C154.12 16.8826 158.293 16.9971 162.786 16.9055C165.021 16.8598 165.686 16.5393 167.474 15.4863C170.672 13.6206 172.368 11.1712 176.586 11.1712C178.076 11.1712 182.363 11.6977 183.429 13.1055C184.438 14.4332 186.707 13.1742 185.71 11.7778L185.722 11.8007Z" fill="#484240"/>
<path d="M136.4 26.0393C132.869 26.8405 129.992 31.3158 128.399 34.3032C127.035 36.8556 125.35 40.7243 126.989 43.4827C127.31 44.0321 128.021 44.0779 128.479 43.6773C128.755 43.4369 128.835 43.1737 128.846 42.8189C128.846 42.6701 128.8 42.5327 128.732 42.4182C128.64 39.7514 129.729 37.2562 131.081 34.9785C132.812 32.0827 135.334 30.2284 137.34 27.6417C137.901 26.9091 137.408 25.8218 136.411 26.0507L136.4 26.0393Z" fill="#484240"/>
<path d="M120.834 185.045C113.177 171.539 100.787 159.189 86.8831 152.115C86.1839 151.76 85.393 152.653 86.012 153.237C91.3877 158.376 97.9555 162.13 103.377 167.269C109.337 172.924 114.232 179.425 118.633 186.327C119.516 187.712 121.659 186.475 120.846 185.033L120.834 185.045Z" fill="#0B345E"/>
<path d="M111.607 182.962C110.954 182.115 110.06 181.451 109.383 180.592C108.696 179.711 108.065 178.784 107.332 177.937C105.314 175.636 102.529 173.999 100.225 172.008C99.48 171.355 98.4713 172.351 99.1361 173.095C101.406 175.625 104.111 177.971 106.094 180.718C107.171 182.218 108.615 185.056 110.759 185.022C111.894 184.999 112.237 183.763 111.607 182.962Z" fill="#0B345E"/>
<path d="M268.811 153.168C263.217 150.684 254.22 157.517 249.979 160.596C243.136 165.575 236.064 173.141 231.765 180.443C231.318 181.199 232.212 182.126 232.98 181.657C238.723 178.131 242.23 171.252 247.102 166.628C251.973 162.016 261.441 154.69 268.467 154.473C269.109 154.45 269.499 153.466 268.822 153.157L268.811 153.168Z" fill="#0B345E"/>
<path d="M149.627 192.118C138.933 189.131 132.182 182.389 126.944 172.763C121.637 163.023 121.327 154.37 125.167 144.149C125.396 143.542 124.479 143.016 124.067 143.508C110.243 159.772 130.738 192.004 149.387 193.892C150.43 193.995 150.59 192.382 149.627 192.118Z" fill="#0B345E"/>
<path d="M220.406 140.749C219.558 140.337 218.767 141.333 219.398 142.054C227.066 150.787 225.748 163.446 220.831 173.221C218.137 178.578 214.675 183.717 209.735 187.231C206.136 189.795 202.193 191.706 198.858 194.636C198.307 195.117 199.018 196.033 199.637 195.644C204.841 192.347 211.042 189.978 215.375 185.468C219.845 180.821 223.329 174.549 225.415 168.483C227.983 161.009 229.198 145.087 220.406 140.772V140.749Z" fill="#0B345E"/>
<path d="M146.016 169.238C144.332 162.851 142.899 156.419 141.294 150.009C140.641 147.411 140.847 143.199 138.417 141.585C137.867 141.219 137.259 141.814 137.385 142.375C139.323 151.577 141.179 160.78 143.575 169.902C143.988 171.481 146.452 170.818 146.028 169.227L146.016 169.238Z" fill="#DB553D"/>
<path d="M207.121 143.611C207.053 142.81 205.838 142.523 205.631 143.405C204.703 147.479 204.244 151.68 203.694 155.812C203.052 160.711 201.665 165.701 201.803 170.669C201.837 172.134 203.866 172.054 204.027 170.669C205.058 161.81 207.889 152.596 207.121 143.611Z" fill="#DB553D"/>
</g>
</g>
<path d="M253.393 171.638C250.551 167.747 246.344 169.177 245.427 173.401C244.957 175.576 245.175 178.025 244.74 180.28C244.293 182.558 243.674 184.824 243.249 187.113C242.94 188.67 242.757 191.394 242.069 193.477C245.519 193.889 249.003 194.141 252.499 194.244C256.454 188.315 256.718 176.194 253.405 171.627L253.393 171.638Z" fill="#F77D68"/>
<path d="M94.161 170.162C90.4587 174.66 89.9658 187.124 93.5879 193.626C97.2557 193.66 104.603 193.98 104.603 193.98C104.603 193.98 104.053 188.486 103.846 186.953C103.526 184.526 103.021 182.134 102.7 179.707C102.379 177.327 102.758 174.774 102.391 172.474C101.68 168.01 97.3704 166.259 94.1724 170.162H94.161Z" fill="#F77D68"/>
<path d="M84.8879 177.258C83.3863 174.419 82.3891 173.469 79.1797 172.943C76.2568 172.462 73.5632 173.95 72.0502 175.575C71.6261 175.244 70.5601 173.195 70.0673 172.943C65.7804 170.654 62.7429 173.172 60.9892 176.697C60.3588 176.079 59.6367 175.564 58.8229 175.244C57.0233 174.557 55.1435 174.969 53.5273 175.953C51.8424 176.983 47.0627 184.618 49.8594 193.671C51.4871 198.925 56.4961 204.087 60.5766 197.506C61.7916 202.404 63.4192 205.472 65.8492 206.548C68.8523 207.876 72.2107 203.686 73.7466 200.482C75.8671 204.762 77.4145 208.23 81.1397 207.807C84.3377 207.441 86.3665 202.164 86.3665 198.17C87.6502 200.413 90.5043 203.423 93.3928 202.988C96.0979 202.576 97.0836 200.081 97.7255 197.723C99.5938 190.844 97.8745 186.003 95.6394 180.36C93.6908 175.45 88.2463 175.072 84.8649 177.269L84.8879 177.258Z" fill="#F77D68"/>
<path d="M96.6366 191.703C97.1295 186.907 94.8944 182.592 93.3241 178.219C93.1636 177.773 93.645 177.292 94.0806 177.601C96.1552 179.147 96.843 182.569 97.5651 184.927C98.1611 186.884 99.1698 190.077 98.4018 192.092C98.035 193.042 96.5449 192.733 96.6481 191.703H96.6366Z" fill="#DB553D"/>
<path d="M60.8861 194.679C60.1181 191.989 60.141 189.185 59.8316 186.415C59.5679 183.988 59.3043 181.356 59.8086 178.941C59.9691 178.197 58.9719 177.727 58.5593 178.414C57.287 180.52 57.6308 183.507 57.8486 185.842C58.1352 188.933 58.1352 192.195 59.247 195.125C59.6252 196.132 61.1956 195.743 60.8861 194.679Z" fill="#DB553D"/>
<path d="M73.7927 188.04C73.5749 185.968 73.0706 183.942 72.8528 181.871C72.7038 180.383 72.7955 179.581 72.016 178.334C71.6951 177.819 70.7208 177.979 70.7896 178.666C71.0762 181.882 71.5346 185.087 71.8212 188.303C72.1192 191.668 71.1908 195.022 71.7983 198.341C71.9243 199.028 72.9789 198.982 73.1393 198.341C73.9417 195.091 74.1595 191.359 73.7927 188.028V188.04Z" fill="#DB553D"/>
<path d="M86.8938 189.665C86.7906 188.372 86.6531 187.078 86.4468 185.797C86.1602 184.022 86.3207 181.298 84.8994 180.062C84.5211 179.73 83.8334 179.936 83.8449 180.497C83.9366 183.473 84.7618 186.403 85.0026 189.368C85.1172 190.753 85.2089 192.138 85.2318 193.534C85.2318 193.957 85.1974 194.381 85.2318 194.804C85.2891 195.537 85.1401 195.365 85.3693 195.01C85.0828 195.445 85.5642 196.052 86.0456 195.892C87.9483 195.297 86.997 191.039 86.8938 189.654V189.665Z" fill="#DB553D"/>
<path d="M251.582 180.577C249.313 186.209 246.779 190.707 248.086 197.712C248.533 200.115 249.324 202.679 251.983 203.309C254.826 203.973 258.001 201.145 259.48 199.005C259.159 202.977 260.66 208.471 263.812 209.1C267.492 209.833 269.818 206.113 272.283 202.015C273.555 205.335 276.054 210.165 279.16 209.089C281.67 208.219 283.539 205.3 285.155 200.505C288.685 207.395 294.886 202.908 296.147 197.551C296.961 194.083 296.995 190.432 296.491 186.918C295.895 182.832 294.393 176.777 288.731 178.448C287.894 178.7 287.126 179.147 286.45 179.719C284.994 176.068 282.163 173.309 277.704 175.244C277.2 175.461 275.825 176.846 275.389 177.132C274.014 175.404 272.306 173.321 269.348 173.561C266.116 173.824 264.317 175.644 262.586 178.345C261.749 174.11 254.963 172.176 251.605 180.554L251.582 180.577Z" fill="#F77D68"/>
<path d="M250.894 178.941C249.828 181.035 249.175 183.336 248.579 185.602C247.995 187.823 246.94 190.169 247.364 192.481C247.456 193.008 248.224 193.053 248.476 192.63C249.657 190.558 250.264 188.097 250.883 185.808C251.433 183.805 252.809 181.47 252.66 179.421C252.602 178.563 251.353 178.048 250.894 178.941Z" fill="#DB553D"/>
<path d="M261.818 180.028C260.672 185.476 258.597 191.451 258.815 197.048C258.849 198.021 260.179 197.964 260.293 197.048C260.97 191.554 263.205 185.751 263.01 180.188C262.987 179.536 261.967 179.341 261.829 180.028H261.818Z" fill="#DB553D"/>
<path d="M276.237 178.975C276.191 178.025 274.896 178.071 274.793 178.975C273.922 186.255 273.223 193.568 272.191 200.814C272.065 201.695 273.314 202.096 273.567 201.191C274.449 197.975 274.759 194.507 275.16 191.199C275.641 187.182 276.432 183.027 276.249 178.975H276.237Z" fill="#DB553D"/>
<path d="M287.207 181.001C287.138 180.383 286.141 180.097 286.003 180.841C285.545 183.496 285.808 186.323 285.556 189.036C285.281 192.08 285.281 195.308 284.559 198.273C284.364 199.074 285.476 199.577 285.911 198.845C287.172 196.693 287.103 193.763 287.275 191.336C287.516 187.891 287.596 184.435 287.207 181.012V181.001Z" fill="#DB553D"/>
<defs>
<clipPath id="clip0_204_1465">
<rect width="345" height="307" fill="white"/>
</clipPath>
</defs>
</svg>
